<mxfile host="app.diagrams.net" modified="2023-05-14T13:20:00.854Z" agent="Mozilla/5.0 (Windows NT 10.0; Win64; x64; rv:109.0) Gecko/20100101 Firefox/112.0" etag="pmVqlE-RTvRuoq-2toaf" version="21.3.0" type="device">
  <diagram id="C5RBs43oDa-KdzZeNtuy" name="Page-1">
    <mxGraphModel dx="2442" dy="923" grid="1" gridSize="10" guides="1" tooltips="1" connect="1" arrows="1" fold="1" page="1" pageScale="1" pageWidth="827" pageHeight="1169" math="0" shadow="0">
      <root>
        <mxCell id="WIyWlLk6GJQsqaUBKTNV-0" />
        <mxCell id="WIyWlLk6GJQsqaUBKTNV-1" parent="WIyWlLk6GJQsqaUBKTNV-0" />
        <mxCell id="uPGcepSeNxVt7o54qOPl-41" style="edgeStyle=orthogonalEdgeStyle;rounded=0;orthogonalLoop=1;jettySize=auto;html=1;exitX=0;exitY=0;exitDx=195;exitDy=42;exitPerimeter=0;entryX=0;entryY=0;entryDx=0;entryDy=42;entryPerimeter=0;dashed=1;dashPattern=8 8;" edge="1" parent="WIyWlLk6GJQsqaUBKTNV-1" source="uPGcepSeNxVt7o54qOPl-35" target="uPGcepSeNxVt7o54qOPl-38">
          <mxGeometry relative="1" as="geometry">
            <Array as="points">
              <mxPoint x="400" y="562" />
              <mxPoint x="400" y="562" />
            </Array>
          </mxGeometry>
        </mxCell>
        <mxCell id="uPGcepSeNxVt7o54qOPl-42" style="edgeStyle=orthogonalEdgeStyle;rounded=0;orthogonalLoop=1;jettySize=auto;html=1;exitX=0;exitY=0;exitDx=109.99999999999999;exitDy=42;exitPerimeter=0;entryX=0.75;entryY=1;entryDx=0;entryDy=0;entryPerimeter=0;dashed=1;dashPattern=8 8;" edge="1" parent="WIyWlLk6GJQsqaUBKTNV-1" source="uPGcepSeNxVt7o54qOPl-35" target="uPGcepSeNxVt7o54qOPl-36">
          <mxGeometry relative="1" as="geometry" />
        </mxCell>
        <mxCell id="uPGcepSeNxVt7o54qOPl-43" style="edgeStyle=orthogonalEdgeStyle;rounded=0;orthogonalLoop=1;jettySize=auto;html=1;exitX=0;exitY=0;exitDx=0;exitDy=42;exitPerimeter=0;entryX=0;entryY=0;entryDx=200;entryDy=42;entryPerimeter=0;dashed=1;dashPattern=8 8;" edge="1" parent="WIyWlLk6GJQsqaUBKTNV-1" source="uPGcepSeNxVt7o54qOPl-35" target="uPGcepSeNxVt7o54qOPl-40">
          <mxGeometry relative="1" as="geometry" />
        </mxCell>
        <mxCell id="uPGcepSeNxVt7o54qOPl-46" style="edgeStyle=orthogonalEdgeStyle;rounded=0;orthogonalLoop=1;jettySize=auto;html=1;exitX=0.75;exitY=1;exitDx=0;exitDy=0;exitPerimeter=0;entryX=0;entryY=0;entryDx=0;entryDy=42;entryPerimeter=0;dashed=1;dashPattern=8 8;" edge="1" parent="WIyWlLk6GJQsqaUBKTNV-1" source="uPGcepSeNxVt7o54qOPl-35" target="uPGcepSeNxVt7o54qOPl-44">
          <mxGeometry relative="1" as="geometry" />
        </mxCell>
        <mxCell id="uPGcepSeNxVt7o54qOPl-65" style="edgeStyle=orthogonalEdgeStyle;rounded=0;orthogonalLoop=1;jettySize=auto;html=1;exitX=0.25;exitY=1;exitDx=0;exitDy=0;exitPerimeter=0;entryX=0.5;entryY=0;entryDx=0;entryDy=0;dashed=1;dashPattern=8 8;" edge="1" parent="WIyWlLk6GJQsqaUBKTNV-1" source="uPGcepSeNxVt7o54qOPl-35" target="uPGcepSeNxVt7o54qOPl-64">
          <mxGeometry relative="1" as="geometry" />
        </mxCell>
        <mxCell id="uPGcepSeNxVt7o54qOPl-35" value="containerMaintainers/Minitwit-Golang/main" style="shape=folder;fontStyle=1;spacingTop=10;tabWidth=40;tabHeight=14;tabPosition=left;html=1;whiteSpace=wrap;" vertex="1" parent="WIyWlLk6GJQsqaUBKTNV-1">
          <mxGeometry x="170" y="520" width="195" height="70" as="geometry" />
        </mxCell>
        <mxCell id="uPGcepSeNxVt7o54qOPl-52" style="edgeStyle=orthogonalEdgeStyle;rounded=0;orthogonalLoop=1;jettySize=auto;html=1;exitX=0;exitY=0;exitDx=120;exitDy=14;exitPerimeter=0;entryX=0.25;entryY=1;entryDx=0;entryDy=0;entryPerimeter=0;dashed=1;dashPattern=8 8;" edge="1" parent="WIyWlLk6GJQsqaUBKTNV-1" source="uPGcepSeNxVt7o54qOPl-36" target="uPGcepSeNxVt7o54qOPl-39">
          <mxGeometry relative="1" as="geometry">
            <Array as="points">
              <mxPoint x="250" y="245" />
              <mxPoint x="339" y="245" />
            </Array>
          </mxGeometry>
        </mxCell>
        <mxCell id="uPGcepSeNxVt7o54qOPl-53" style="edgeStyle=orthogonalEdgeStyle;rounded=0;orthogonalLoop=1;jettySize=auto;html=1;entryX=0;entryY=0;entryDx=0;entryDy=42;entryPerimeter=0;dashed=1;dashPattern=8 8;exitX=0;exitY=0;exitDx=200;exitDy=42;exitPerimeter=0;" edge="1" parent="WIyWlLk6GJQsqaUBKTNV-1" source="uPGcepSeNxVt7o54qOPl-36" target="uPGcepSeNxVt7o54qOPl-37">
          <mxGeometry relative="1" as="geometry">
            <Array as="points">
              <mxPoint x="370" y="372" />
              <mxPoint x="370" y="372" />
            </Array>
          </mxGeometry>
        </mxCell>
        <mxCell id="uPGcepSeNxVt7o54qOPl-58" style="edgeStyle=orthogonalEdgeStyle;rounded=0;orthogonalLoop=1;jettySize=auto;html=1;exitX=0.322;exitY=0.195;exitDx=0;exitDy=0;exitPerimeter=0;entryX=1;entryY=0.5;entryDx=0;entryDy=0;dashed=1;dashPattern=8 8;" edge="1" parent="WIyWlLk6GJQsqaUBKTNV-1" source="uPGcepSeNxVt7o54qOPl-36" target="uPGcepSeNxVt7o54qOPl-63">
          <mxGeometry relative="1" as="geometry">
            <Array as="points">
              <mxPoint x="194" y="342" />
              <mxPoint x="194" y="220" />
            </Array>
          </mxGeometry>
        </mxCell>
        <mxCell id="uPGcepSeNxVt7o54qOPl-36" value="containerMaintainers/Minitwit-Golang/database" style="shape=folder;fontStyle=1;spacingTop=10;tabWidth=40;tabHeight=14;tabPosition=left;html=1;whiteSpace=wrap;" vertex="1" parent="WIyWlLk6GJQsqaUBKTNV-1">
          <mxGeometry x="130" y="330" width="200" height="70" as="geometry" />
        </mxCell>
        <mxCell id="uPGcepSeNxVt7o54qOPl-37" value="containerMaintainers/Minitwit-Golang/entities" style="shape=folder;fontStyle=1;spacingTop=10;tabWidth=40;tabHeight=14;tabPosition=left;html=1;whiteSpace=wrap;" vertex="1" parent="WIyWlLk6GJQsqaUBKTNV-1">
          <mxGeometry x="450" y="330" width="200" height="70" as="geometry" />
        </mxCell>
        <mxCell id="uPGcepSeNxVt7o54qOPl-66" style="edgeStyle=orthogonalEdgeStyle;rounded=0;orthogonalLoop=1;jettySize=auto;html=1;exitX=0.748;exitY=0.202;exitDx=0;exitDy=0;exitPerimeter=0;entryX=0.75;entryY=1;entryDx=0;entryDy=0;entryPerimeter=0;dashed=1;dashPattern=8 8;" edge="1" parent="WIyWlLk6GJQsqaUBKTNV-1" source="uPGcepSeNxVt7o54qOPl-38" target="uPGcepSeNxVt7o54qOPl-37">
          <mxGeometry relative="1" as="geometry" />
        </mxCell>
        <mxCell id="uPGcepSeNxVt7o54qOPl-67" style="edgeStyle=orthogonalEdgeStyle;rounded=0;orthogonalLoop=1;jettySize=auto;html=1;exitX=0.3;exitY=0.192;exitDx=0;exitDy=0;exitPerimeter=0;entryX=0;entryY=0;entryDx=120;entryDy=14;entryPerimeter=0;dashed=1;dashPattern=8 8;" edge="1" parent="WIyWlLk6GJQsqaUBKTNV-1" source="uPGcepSeNxVt7o54qOPl-38" target="uPGcepSeNxVt7o54qOPl-40">
          <mxGeometry relative="1" as="geometry">
            <Array as="points">
              <mxPoint x="520" y="460" />
              <mxPoint x="35" y="460" />
            </Array>
          </mxGeometry>
        </mxCell>
        <mxCell id="uPGcepSeNxVt7o54qOPl-68" style="edgeStyle=orthogonalEdgeStyle;rounded=0;orthogonalLoop=1;jettySize=auto;html=1;exitX=0.25;exitY=1;exitDx=0;exitDy=0;exitPerimeter=0;entryX=0;entryY=0;entryDx=105;entryDy=42;entryPerimeter=0;dashed=1;dashPattern=8 8;" edge="1" parent="WIyWlLk6GJQsqaUBKTNV-1" source="uPGcepSeNxVt7o54qOPl-38" target="uPGcepSeNxVt7o54qOPl-44">
          <mxGeometry relative="1" as="geometry" />
        </mxCell>
        <mxCell id="uPGcepSeNxVt7o54qOPl-70" style="edgeStyle=orthogonalEdgeStyle;rounded=0;orthogonalLoop=1;jettySize=auto;html=1;exitX=0.75;exitY=1;exitDx=0;exitDy=0;exitPerimeter=0;entryX=0.527;entryY=0.21;entryDx=0;entryDy=0;entryPerimeter=0;dashed=1;dashPattern=8 8;" edge="1" parent="WIyWlLk6GJQsqaUBKTNV-1" source="uPGcepSeNxVt7o54qOPl-38" target="uPGcepSeNxVt7o54qOPl-69">
          <mxGeometry relative="1" as="geometry" />
        </mxCell>
        <mxCell id="uPGcepSeNxVt7o54qOPl-38" value="containerMaintainers/Minitwit-Golang/controllers" style="shape=folder;fontStyle=1;spacingTop=10;tabWidth=40;tabHeight=14;tabPosition=left;html=1;whiteSpace=wrap;" vertex="1" parent="WIyWlLk6GJQsqaUBKTNV-1">
          <mxGeometry x="460" y="520" width="200" height="70" as="geometry" />
        </mxCell>
        <mxCell id="uPGcepSeNxVt7o54qOPl-62" style="edgeStyle=orthogonalEdgeStyle;rounded=0;orthogonalLoop=1;jettySize=auto;html=1;exitX=0;exitY=0;exitDx=117.5;exitDy=14;exitPerimeter=0;entryX=0;entryY=0;entryDx=120;entryDy=14;entryPerimeter=0;dashed=1;dashPattern=8 8;" edge="1" parent="WIyWlLk6GJQsqaUBKTNV-1" source="uPGcepSeNxVt7o54qOPl-39" target="uPGcepSeNxVt7o54qOPl-37">
          <mxGeometry relative="1" as="geometry" />
        </mxCell>
        <mxCell id="uPGcepSeNxVt7o54qOPl-39" value="containerMaintainers/Minitwit-Golang/initializers" style="shape=folder;fontStyle=1;spacingTop=10;tabWidth=40;tabHeight=14;tabPosition=left;html=1;whiteSpace=wrap;" vertex="1" parent="WIyWlLk6GJQsqaUBKTNV-1">
          <mxGeometry x="290" y="90" width="195" height="70" as="geometry" />
        </mxCell>
        <mxCell id="uPGcepSeNxVt7o54qOPl-51" style="edgeStyle=orthogonalEdgeStyle;rounded=0;orthogonalLoop=1;jettySize=auto;html=1;exitX=0.5;exitY=1;exitDx=0;exitDy=0;exitPerimeter=0;entryX=0.455;entryY=0.191;entryDx=0;entryDy=0;entryPerimeter=0;dashed=1;dashPattern=8 8;" edge="1" parent="WIyWlLk6GJQsqaUBKTNV-1" source="uPGcepSeNxVt7o54qOPl-40" target="uPGcepSeNxVt7o54qOPl-47">
          <mxGeometry relative="1" as="geometry" />
        </mxCell>
        <mxCell id="uPGcepSeNxVt7o54qOPl-40" value="containerMaintainers/Minitwit-Golang/monitoring" style="shape=folder;fontStyle=1;spacingTop=10;tabWidth=40;tabHeight=14;tabPosition=left;html=1;whiteSpace=wrap;" vertex="1" parent="WIyWlLk6GJQsqaUBKTNV-1">
          <mxGeometry x="-85" y="520" width="200" height="70" as="geometry" />
        </mxCell>
        <mxCell id="uPGcepSeNxVt7o54qOPl-44" value="gin-gonic/gin" style="shape=folder;fontStyle=1;spacingTop=10;tabWidth=40;tabHeight=14;tabPosition=left;html=1;whiteSpace=wrap;" vertex="1" parent="WIyWlLk6GJQsqaUBKTNV-1">
          <mxGeometry x="361" y="660" width="105" height="70" as="geometry" />
        </mxCell>
        <mxCell id="uPGcepSeNxVt7o54qOPl-63" value="" style="swimlane;startSize=0;" vertex="1" parent="WIyWlLk6GJQsqaUBKTNV-1">
          <mxGeometry x="-280" y="130" width="310" height="180" as="geometry" />
        </mxCell>
        <mxCell id="uPGcepSeNxVt7o54qOPl-56" value="gorm.io/driver/sqlite" style="shape=folder;fontStyle=1;spacingTop=10;tabWidth=40;tabHeight=14;tabPosition=left;html=1;whiteSpace=wrap;" vertex="1" parent="uPGcepSeNxVt7o54qOPl-63">
          <mxGeometry x="20" y="10" width="140" height="70" as="geometry" />
        </mxCell>
        <mxCell id="uPGcepSeNxVt7o54qOPl-54" value="gorm.io/gorm" style="shape=folder;fontStyle=1;spacingTop=10;tabWidth=40;tabHeight=14;tabPosition=left;html=1;whiteSpace=wrap;" vertex="1" parent="uPGcepSeNxVt7o54qOPl-63">
          <mxGeometry x="180" y="10" width="110" height="70" as="geometry" />
        </mxCell>
        <mxCell id="uPGcepSeNxVt7o54qOPl-55" value="gorm.io/driver/postgres" style="shape=folder;fontStyle=1;spacingTop=10;tabWidth=40;tabHeight=14;tabPosition=left;html=1;whiteSpace=wrap;" vertex="1" parent="uPGcepSeNxVt7o54qOPl-63">
          <mxGeometry x="75" y="90" width="160" height="70" as="geometry" />
        </mxCell>
        <mxCell id="uPGcepSeNxVt7o54qOPl-64" value="" style="swimlane;startSize=0;" vertex="1" parent="WIyWlLk6GJQsqaUBKTNV-1">
          <mxGeometry x="-80" y="760" width="380" height="110" as="geometry" />
        </mxCell>
        <mxCell id="uPGcepSeNxVt7o54qOPl-47" value="prometheus/client_golang/promhttp" style="shape=folder;fontStyle=1;spacingTop=10;tabWidth=40;tabHeight=14;tabPosition=left;html=1;whiteSpace=wrap;" vertex="1" parent="uPGcepSeNxVt7o54qOPl-64">
          <mxGeometry x="20" y="20" width="165" height="70" as="geometry" />
        </mxCell>
        <mxCell id="uPGcepSeNxVt7o54qOPl-45" value="prometheus/client_golang/prometheus" style="shape=folder;fontStyle=1;spacingTop=10;tabWidth=40;tabHeight=14;tabPosition=left;html=1;whiteSpace=wrap;" vertex="1" parent="uPGcepSeNxVt7o54qOPl-64">
          <mxGeometry x="200" y="20" width="165" height="70" as="geometry" />
        </mxCell>
        <mxCell id="uPGcepSeNxVt7o54qOPl-69" value="golang.org/x/crypto/bcrypt&quot;" style="shape=folder;fontStyle=1;spacingTop=10;tabWidth=40;tabHeight=14;tabPosition=left;html=1;whiteSpace=wrap;" vertex="1" parent="WIyWlLk6GJQsqaUBKTNV-1">
          <mxGeometry x="555" y="660" width="105" height="70" as="geometry" />
        </mxCell>
      </root>
    </mxGraphModel>
  </diagram>
</mxfile>
